<svg width="142" height="142" viewBox="0 0 142 142" fill="none" xmlns="http://www.w3.org/2000/svg">
<g clip-path="url(#clip0_0_1075)">
<path d="M141.405 70.8898C141.405 84.8126 137.276 98.4227 129.541 109.999C121.806 121.575 110.812 130.598 97.9492 135.926C85.0862 141.254 70.9322 142.648 57.277 139.932C43.6217 137.216 31.0786 130.511 21.2337 120.666C11.3889 110.822 4.68441 98.2784 1.96822 84.6231C-0.747979 70.9679 0.646071 56.8139 5.97408 43.9509C11.3021 31.088 20.3248 20.0938 31.9011 12.3588C43.4775 4.6237 57.0876 0.495117 71.0103 0.495117C89.6801 0.495117 107.585 7.91168 120.787 21.1132C133.988 34.3148 141.405 52.22 141.405 70.8898Z" fill="#F7931A"/>
<path fill-rule="evenodd" clip-rule="evenodd" d="M50.647 32.6398L66.825 36.9723L70.4407 23.4949L78.5297 25.6899L75.0548 38.6105L81.6527 40.3832L85.134 27.3218L93.3638 29.5232L89.8185 42.655C89.8185 42.655 103.257 45.6308 106.419 56.5612C109.58 67.4916 99.4689 73.2319 96.346 73.4495C96.346 73.4495 108.121 79.9066 104.077 92.6097C100.032 105.313 87.617 107.585 74.5556 104.673L71.0103 118.291L62.7805 116.09L66.3962 102.683L59.8687 100.903L56.253 114.406L48.0872 112.211L51.7093 98.7724L35.1026 94.2928L39.2879 85.0006C39.2879 85.0006 43.9723 86.2806 45.745 86.7029C47.5176 87.1253 48.6568 85.2822 49.1559 83.4392C49.6551 81.5961 57.1745 51.0512 57.8849 48.5362C58.5952 46.0212 58.3072 44.0565 55.3251 43.2822C52.3429 42.5078 48.2856 41.2983 48.2856 41.2983L50.647 32.6398ZM66.9658 73.0911L62.4861 90.901C62.4861 90.901 84.6988 98.9196 87.5402 87.6372C90.3816 76.3549 66.9658 73.0911 66.9658 73.0911ZM69.0264 64.6438L73.4229 48.325C73.4229 48.325 92.4423 51.7295 90.1 60.8105C87.7578 69.8914 76.5459 66.41 69.0264 64.6438Z" fill="white"/>
</g>
<defs>
<clipPath id="clip0_0_1075">
<rect width="140.789" height="140.789" fill="white" transform="translate(0.615616 0.495117)"/>
</clipPath>
</defs>
</svg>
