<svg width="110" height="27" viewBox="0 0 110 27" fill="none" xmlns="http://www.w3.org/2000/svg">
<path d="M12.9821 5.53121V2.2041H2.12518V25.0633H12.9821V21.7362C10.758 21.7362 8.62506 20.8825 7.05246 19.363C5.47983 17.8435 4.59634 15.7826 4.59634 13.6337C4.59634 11.4848 5.47983 9.42387 7.05246 7.90439C8.62506 6.38487 10.758 5.53121 12.9821 5.53121Z" fill="#2C3131"/>
<path d="M12.9829 5.53101V21.736C15.207 21.736 17.34 20.8823 18.9126 19.3628C20.4852 17.8433 21.3687 15.7824 21.3687 13.6335C21.3687 11.4846 20.4852 9.42366 18.9126 7.90418C17.34 6.38466 15.207 5.53101 12.9829 5.53101Z" fill="#2752E7"/>
<path d="M32.2388 20.587C31.6878 20.587 31.172 20.4762 30.6913 20.2548C30.216 20.0333 29.827 19.6687 29.5246 19.161C29.2383 18.6695 29.0952 18.0321 29.0952 17.2489V11.7718H31.5906V16.5359C31.5906 17.1733 31.75 17.627 32.0686 17.8971C32.3873 18.1671 32.7735 18.3022 33.2273 18.3022C33.897 18.2157 34.3859 17.9673 34.6937 17.5568C35.0016 17.1463 35.1556 16.6547 35.1556 16.0822V11.7718H37.6348V20.4897H35.1556V18.9503C34.5182 20.0414 33.5459 20.587 32.2388 20.587ZM42.5473 20.4897H40.0518V11.7718H42.5473V13.3436C43.163 12.2634 44.1245 11.707 45.4316 11.6746V14.0242L45.0751 14.008C44.6592 14.008 44.2568 14.0809 43.8679 14.2268C43.4844 14.3672 43.1684 14.6076 42.92 14.9479C42.6715 15.2882 42.5473 15.7365 42.5473 16.2928V20.4897Z" fill="#2752E7"/>
<path d="M51.9784 20.668C50.2716 20.668 48.8537 20.1089 47.7248 18.9908C46.5959 17.8727 46.0315 16.4711 46.0315 14.7858C46.0315 13.1438 46.6067 11.7637 47.7572 10.6456C48.9077 9.52752 50.3472 8.96847 52.0757 8.96847C53.7609 8.96847 55.2517 9.60044 56.5481 10.8644L55.0573 12.6955C54.1498 11.7016 53.1668 11.2047 52.1081 11.2047C51.1466 11.2047 50.331 11.5315 49.6612 12.185C48.9914 12.8386 48.6566 13.6947 48.6566 14.7534C48.6566 15.2017 48.7295 15.6393 48.8753 16.066C49.0212 16.4927 49.2372 16.8762 49.5235 17.2165C49.8098 17.5568 50.169 17.8295 50.6011 18.0348C51.0332 18.2346 51.5355 18.3346 52.1081 18.3346C53.1235 18.3346 54.1066 17.8863 55.0573 16.9896L56.5643 18.6262C55.1491 19.9874 53.6205 20.668 51.9784 20.668ZM60.5398 20.4897H58.0443V11.7718H60.5398V13.3436C61.1555 12.2634 62.117 11.707 63.4241 11.6746V14.0242L63.0676 14.008C62.6517 14.008 62.2493 14.0809 61.8604 14.2268C61.4769 14.3672 61.1609 14.6076 60.9125 14.9479C60.664 15.2882 60.5398 15.7365 60.5398 16.2928V20.4897ZM66.2182 23.7468C65.3 23.7468 64.5114 23.4659 63.8524 22.9042L64.9057 21.1055C65.273 21.4188 65.6511 21.5754 66.04 21.5754C66.5693 21.5754 66.9528 21.3162 67.1905 20.7976L67.4336 20.3115L63.82 11.7718H66.3965L68.6813 17.7674L70.7392 11.7718H73.2347L69.4105 21.462C68.7947 22.9852 67.7306 23.7468 66.2182 23.7468ZM76.9042 23.6334H74.4088V11.7718H76.9042V13.052C77.5632 12.1445 78.4815 11.6908 79.659 11.6908C80.1883 11.6908 80.6987 11.7772 81.1903 11.9501C81.6818 12.1175 82.1193 12.3822 82.5028 12.7441C82.8863 13.106 83.1915 13.5705 83.4184 14.1377C83.6452 14.7048 83.7587 15.3854 83.7587 16.1794C83.7587 17.4541 83.4022 18.5074 82.6892 19.3392C81.9762 20.1711 80.9823 20.587 79.7076 20.587C78.4977 20.587 77.5632 20.1333 76.9042 19.2258V23.6334ZM79.0756 18.5128C79.7886 18.5128 80.326 18.2779 80.6879 17.8079C81.0498 17.338 81.2308 16.7682 81.2308 16.0984C81.2308 15.461 81.0525 14.902 80.696 14.4212C80.3395 13.9405 79.7994 13.7001 79.0756 13.7001C78.3518 13.7001 77.809 13.9378 77.4471 14.4131C77.0852 14.8885 76.9042 15.4502 76.9042 16.0984C76.9042 16.9086 77.1176 17.5136 77.5443 17.9133C77.971 18.313 78.4815 18.5128 79.0756 18.5128ZM88.5324 20.6032C87.7545 20.6032 87.1037 20.3898 86.5797 19.9631C86.0558 19.5364 85.7938 18.8531 85.7938 17.9133V13.8784H84.5785V12.1607H85.7938V9.76248H88.2731V12.1607H90.6389V13.8946H88.2731V17.4919C88.2731 18.1617 88.5378 18.4966 89.0671 18.4966C89.4128 18.4966 89.8179 18.3886 90.2824 18.1725L90.801 20.0036C90.1096 20.4033 89.3534 20.6032 88.5324 20.6032ZM96.1788 20.587C95.1633 20.587 94.3072 20.3871 93.6104 19.9874C92.8812 19.5607 92.3464 19.0098 92.0062 18.3346C91.6659 17.6594 91.4957 16.9248 91.4957 16.1308C91.4957 15.1585 91.7037 14.3429 92.1196 13.6839C92.5679 12.9979 93.1486 12.4956 93.8616 12.1769C94.5745 11.8528 95.3469 11.6908 96.1788 11.6908C97.5075 11.6908 98.6175 12.0689 99.5088 12.8251C100.4 13.5813 100.846 14.6832 100.846 16.1308C100.846 16.7033 100.754 17.257 100.57 17.7917C100.392 18.3211 100.111 18.7964 99.7275 19.2177C99.3494 19.639 98.866 19.9739 98.2772 20.2224C97.6885 20.4654 96.989 20.587 96.1788 20.587ZM96.1788 18.5614C96.7729 18.5614 97.2834 18.3589 97.7101 17.9538C98.1368 17.5487 98.3501 16.9518 98.3501 16.1632C98.3501 15.3746 98.1368 14.7777 97.7101 14.3726C97.2834 13.9675 96.7729 13.765 96.1788 13.765C95.5738 13.765 95.058 13.9675 94.6313 14.3726C94.2045 14.7777 93.9912 15.3746 93.9912 16.1632C93.9912 16.9518 94.2045 17.5487 94.6313 17.9538C95.058 18.3589 95.5738 18.5614 96.1788 18.5614Z" fill="#2C3131"/>
<path d="M105.403 11.0808C106.388 11.0808 107.185 10.3099 107.185 9.3589C107.185 8.40792 106.388 7.63696 105.403 7.63696C104.419 7.63696 103.621 8.40792 103.621 9.3589C103.621 10.3099 104.419 11.0808 105.403 11.0808Z" fill="#2C3131"/>
</svg>
