<svg width="106" height="106" viewBox="0 0 106 106" fill="none" xmlns="http://www.w3.org/2000/svg">
<g clip-path="url(#clip0_0_1076)">
<path fill-rule="evenodd" clip-rule="evenodd" d="M52.5077 0.276611C62.8978 0.276611 73.0546 3.35764 81.6937 9.13008C90.3327 14.9025 97.066 23.1071 101.042 32.7063C105.018 42.3055 106.059 52.8682 104.032 63.0587C102.005 73.2492 97.0013 82.6097 89.6544 89.9567C82.3075 97.3036 72.9469 102.307 62.7564 104.334C52.566 106.361 42.0033 105.321 32.404 101.344C22.8048 97.3683 14.6002 90.635 8.8278 81.9959C3.05536 73.3569 -0.0256653 63.2001 -0.0256653 52.81C-0.0256653 38.8773 5.50908 25.5152 15.361 15.6633C25.2129 5.81136 38.575 0.276611 52.5077 0.276611V0.276611Z" fill="white"/>
<path fill-rule="evenodd" clip-rule="evenodd" d="M52.5079 11.5571L66.329 32.2075L80.15 52.8627L52.5079 66.7888L24.8658 52.8101L38.6869 32.155L52.5079 11.5571ZM52.5079 72.3526L26.3988 58.4217L52.5079 94.0632L78.617 58.4217L52.5079 72.3526Z" fill="#343434"/>
<path fill-rule="evenodd" clip-rule="evenodd" d="M52.5077 11.5571L66.3287 32.155L80.1498 52.8101L52.5077 42.3751V11.5571Z" fill="#343434"/>
<path fill-rule="evenodd" clip-rule="evenodd" d="M52.5077 72.3524L78.6693 58.4215L52.5077 94.1155V72.3524Z" fill="#313131"/>
<path fill-rule="evenodd" clip-rule="evenodd" d="M52.5077 42.3749L80.1498 52.8099L52.5077 66.736V42.3749Z" fill="#151515"/>
<path fill-rule="evenodd" clip-rule="evenodd" d="M52.5079 11.5571L38.6869 32.155L24.8658 52.8101L52.5079 42.3751V11.5571Z" fill="#8C8C8C"/>
<path fill-rule="evenodd" clip-rule="evenodd" d="M52.5077 72.3525L26.3986 58.4216L52.5077 94.1157V72.3525Z" fill="#8A8A8A"/>
<path fill-rule="evenodd" clip-rule="evenodd" d="M52.5079 42.3748L24.8658 52.8098L52.5079 66.7359V42.3748Z" fill="#353535"/>
</g>
<defs>
<clipPath id="clip0_0_1076">
<rect width="105.067" height="105.067" fill="white" transform="translate(0.17981 0.276611)"/>
</clipPath>
</defs>
</svg>
