<svg width="841" height="231" viewBox="0 0 841 231" fill="none" xmlns="http://www.w3.org/2000/svg">
<g clip-path="url(#clip0_0_964)">
<rect x="0.233063" y="0.845337" width="840.534" height="229.746" rx="14.0089" fill="#2752E7"/>
<circle cx="769.672" cy="291.178" r="322.555" fill="#4B82EF"/>
<circle cx="7.58824" cy="-1.2567" r="81.6018" fill="#406EEC"/>
<circle cx="420.5" cy="250.903" r="150.245" stroke="#D0DBFF" stroke-width="0.700445"/>
<circle cx="788.934" cy="3.64662" r="96.3112" stroke="#D0DBFF" stroke-width="0.700445"/>
<rect x="602.615" y="100.308" width="3.82557" height="3.82557" rx="1.81226" fill="#7D97F1"/>
<rect x="617.921" y="100.308" width="3.82557" height="3.82557" rx="1.81226" fill="#7D97F1"/>
<rect x="633.227" y="100.308" width="3.82557" height="3.82557" rx="1.81226" fill="#7D97F1"/>
<rect x="648.531" y="100.308" width="3.82557" height="3.82557" rx="1.81226" fill="#7D97F1"/>
<rect x="663.835" y="100.308" width="3.82557" height="3.82557" rx="1.81226" fill="#7D97F1"/>
<rect x="679.141" y="100.308" width="3.82557" height="3.82557" rx="1.81226" fill="#7D97F1"/>
<rect x="694.448" y="100.308" width="3.82557" height="3.82557" rx="1.81226" fill="#7D97F1"/>
<rect x="709.752" y="100.308" width="3.82557" height="3.82557" rx="1.81226" fill="#7D97F1"/>
<rect x="725.057" y="100.308" width="3.82557" height="3.82557" rx="1.81226" fill="#7D97F1"/>
<rect x="740.362" y="100.308" width="3.82557" height="3.82557" rx="1.81226" fill="#7D97F1"/>
<rect x="602.615" y="115.615" width="3.82557" height="3.82557" rx="1.81226" fill="#7D97F1"/>
<rect x="617.921" y="115.615" width="3.82557" height="3.82557" rx="1.81226" fill="#7D97F1"/>
<rect x="633.227" y="115.615" width="3.82557" height="3.82557" rx="1.81226" fill="#7D97F1"/>
<rect x="648.531" y="115.615" width="3.82557" height="3.82557" rx="1.81226" fill="#7D97F1"/>
<rect x="663.835" y="115.615" width="3.82557" height="3.82557" rx="1.81226" fill="#7D97F1"/>
<rect x="679.141" y="115.615" width="3.82557" height="3.82557" rx="1.81226" fill="#7D97F1"/>
<rect x="694.448" y="115.615" width="3.82557" height="3.82557" rx="1.81226" fill="#7D97F1"/>
<rect x="709.752" y="115.615" width="3.82557" height="3.82557" rx="1.81226" fill="#7D97F1"/>
<rect x="725.057" y="115.615" width="3.82557" height="3.82557" rx="1.81226" fill="#7D97F1"/>
<rect x="740.362" y="115.615" width="3.82557" height="3.82557" rx="1.81226" fill="#7D97F1"/>
<rect x="602.615" y="130.919" width="3.82557" height="3.82557" rx="1.81226" fill="#7D97F1"/>
<rect x="617.921" y="130.919" width="3.82557" height="3.82557" rx="1.81226" fill="#7D97F1"/>
<rect x="633.227" y="130.919" width="3.82557" height="3.82557" rx="1.81226" fill="#7D97F1"/>
<rect x="648.531" y="130.919" width="3.82557" height="3.82557" rx="1.81226" fill="#7D97F1"/>
<rect x="663.835" y="130.919" width="3.82557" height="3.82557" rx="1.81226" fill="#7D97F1"/>
<rect x="679.141" y="130.919" width="3.82557" height="3.82557" rx="1.81226" fill="#7D97F1"/>
<rect x="694.448" y="130.919" width="3.82557" height="3.82557" rx="1.81226" fill="#7D97F1"/>
<rect x="709.752" y="130.919" width="3.82557" height="3.82557" rx="1.81226" fill="#7D97F1"/>
<rect x="725.057" y="130.919" width="3.82557" height="3.82557" rx="1.81226" fill="#7D97F1"/>
<rect x="740.362" y="130.919" width="3.82557" height="3.82557" rx="1.81226" fill="#7D97F1"/>
<rect x="602.615" y="146.224" width="3.82557" height="3.82557" rx="1.81226" fill="#7D97F1"/>
<rect x="617.921" y="146.224" width="3.82557" height="3.82557" rx="1.81226" fill="#7D97F1"/>
<rect x="633.227" y="146.224" width="3.82557" height="3.82557" rx="1.81226" fill="#7D97F1"/>
<rect x="648.531" y="146.224" width="3.82557" height="3.82557" rx="1.81226" fill="#7D97F1"/>
<rect x="663.835" y="146.224" width="3.82557" height="3.82557" rx="1.81226" fill="#7D97F1"/>
<rect x="679.141" y="146.224" width="3.82557" height="3.82557" rx="1.81226" fill="#7D97F1"/>
<rect x="694.448" y="146.224" width="3.82557" height="3.82557" rx="1.81226" fill="#7D97F1"/>
<rect x="709.752" y="146.224" width="3.82557" height="3.82557" rx="1.81226" fill="#7D97F1"/>
<rect x="725.057" y="146.224" width="3.82557" height="3.82557" rx="1.81226" fill="#7D97F1"/>
<rect x="740.362" y="146.224" width="3.82557" height="3.82557" rx="1.81226" fill="#7D97F1"/>
<rect x="602.615" y="161.529" width="3.82557" height="3.82557" rx="1.81226" fill="#7D97F1"/>
<rect x="617.921" y="161.529" width="3.82557" height="3.82557" rx="1.81226" fill="#7D97F1"/>
<rect x="633.227" y="161.529" width="3.82557" height="3.82557" rx="1.81226" fill="#7D97F1"/>
<rect x="648.531" y="161.529" width="3.82557" height="3.82557" rx="1.81226" fill="#7D97F1"/>
<rect x="663.835" y="161.529" width="3.82557" height="3.82557" rx="1.81226" fill="#7D97F1"/>
<rect x="679.141" y="161.529" width="3.82557" height="3.82557" rx="1.81226" fill="#7D97F1"/>
<rect x="694.448" y="161.529" width="3.82557" height="3.82557" rx="1.81226" fill="#7D97F1"/>
<rect x="709.752" y="161.529" width="3.82557" height="3.82557" rx="1.81226" fill="#7D97F1"/>
<rect x="725.057" y="161.529" width="3.82557" height="3.82557" rx="1.81226" fill="#7D97F1"/>
<rect x="740.362" y="161.529" width="3.82557" height="3.82557" rx="1.81226" fill="#7D97F1"/>
<rect x="602.615" y="176.834" width="3.82557" height="3.82557" rx="1.81226" fill="#7D97F1"/>
<rect x="617.921" y="176.834" width="3.82557" height="3.82557" rx="1.81226" fill="#7D97F1"/>
<rect x="633.227" y="176.834" width="3.82557" height="3.82557" rx="1.81226" fill="#7D97F1"/>
<rect x="648.531" y="176.834" width="3.82557" height="3.82557" rx="1.81226" fill="#7D97F1"/>
<rect x="663.835" y="176.834" width="3.82557" height="3.82557" rx="1.81226" fill="#7D97F1"/>
<rect x="679.141" y="176.834" width="3.82557" height="3.82557" rx="1.81226" fill="#7D97F1"/>
<rect x="694.448" y="176.834" width="3.82557" height="3.82557" rx="1.81226" fill="#7D97F1"/>
<rect x="709.752" y="176.834" width="3.82557" height="3.82557" rx="1.81226" fill="#7D97F1"/>
<rect x="725.057" y="176.834" width="3.82557" height="3.82557" rx="1.81226" fill="#7D97F1"/>
<rect x="740.362" y="176.834" width="3.82557" height="3.82557" rx="1.81226" fill="#7D97F1"/>
<rect x="602.615" y="192.14" width="3.82557" height="3.82557" rx="1.81226" fill="#7D97F1"/>
<rect x="602.615" y="206.901" width="3.82557" height="3.82557" rx="1.81226" fill="#7D97F1"/>
<rect x="602.615" y="221.662" width="3.82557" height="3.82557" rx="1.81226" fill="#7D97F1"/>
<rect x="617.921" y="192.139" width="3.82557" height="3.82557" rx="1.81226" fill="#7D97F1"/>
<rect x="617.921" y="206.901" width="3.82557" height="3.82557" rx="1.81226" fill="#7D97F1"/>
<rect x="617.921" y="221.662" width="3.82557" height="3.82557" rx="1.81226" fill="#7D97F1"/>
<rect x="633.227" y="192.139" width="3.82557" height="3.82557" rx="1.81226" fill="#7D97F1"/>
<rect x="633.227" y="206.901" width="3.82557" height="3.82557" rx="1.81226" fill="#7D97F1"/>
<rect x="633.227" y="221.662" width="3.82557" height="3.82557" rx="1.81226" fill="#7D97F1"/>
<rect x="648.531" y="192.139" width="3.82557" height="3.82557" rx="1.81226" fill="#7D97F1"/>
<rect x="648.531" y="206.901" width="3.82557" height="3.82557" rx="1.81226" fill="#7D97F1"/>
<rect x="648.531" y="221.662" width="3.82557" height="3.82557" rx="1.81226" fill="#7D97F1"/>
<rect x="663.835" y="192.139" width="3.82557" height="3.82557" rx="1.81226" fill="#7D97F1"/>
<rect x="663.835" y="206.901" width="3.82557" height="3.82557" rx="1.81226" fill="#7D97F1"/>
<rect x="663.835" y="221.662" width="3.82557" height="3.82557" rx="1.81226" fill="#7D97F1"/>
<rect x="679.141" y="192.14" width="3.82557" height="3.82557" rx="1.81226" fill="#7D97F1"/>
<rect x="679.141" y="206.901" width="3.82557" height="3.82557" rx="1.81226" fill="#7D97F1"/>
<rect x="679.141" y="221.662" width="3.82557" height="3.82557" rx="1.81226" fill="#7D97F1"/>
<rect x="694.448" y="192.139" width="3.82557" height="3.82557" rx="1.81226" fill="#7D97F1"/>
<rect x="694.448" y="206.901" width="3.82557" height="3.82557" rx="1.81226" fill="#7D97F1"/>
<rect x="694.448" y="221.662" width="3.82557" height="3.82557" rx="1.81226" fill="#7D97F1"/>
<rect x="709.752" y="192.14" width="3.82557" height="3.82557" rx="1.81226" fill="#7D97F1"/>
<rect x="709.752" y="206.901" width="3.82557" height="3.82557" rx="1.81226" fill="#7D97F1"/>
<rect x="709.752" y="221.662" width="3.82557" height="3.82557" rx="1.81226" fill="#7D97F1"/>
<rect x="725.057" y="192.139" width="3.82557" height="3.82557" rx="1.81226" fill="#7D97F1"/>
<rect x="725.057" y="206.901" width="3.82557" height="3.82557" rx="1.81226" fill="#7D97F1"/>
<rect x="725.057" y="221.662" width="3.82557" height="3.82557" rx="1.81226" fill="#7D97F1"/>
<rect x="740.362" y="192.139" width="3.82557" height="3.82557" rx="1.81226" fill="#7D97F1"/>
<rect x="740.362" y="206.901" width="3.82557" height="3.82557" rx="1.81226" fill="#7D97F1"/>
<rect x="740.362" y="221.662" width="3.82557" height="3.82557" rx="1.81226" fill="#7D97F1"/>
</g>
<defs>
<clipPath id="clip0_0_964">
<rect x="0.233063" y="0.845337" width="840.534" height="229.746" rx="14.0089" fill="white"/>
</clipPath>
</defs>
</svg>
