<svg width="141" height="141" viewBox="0 0 141 141" fill="none" xmlns="http://www.w3.org/2000/svg">
<g id="Frame 221">
<g id="Group 5256">
<path id="Vector" d="M108.382 54.1166H32.4884V119.058H108.382V54.1166Z" fill="white"/>
<path id="Vector_2" d="M108.602 119.28H32.2678V53.895H108.602V119.28ZM32.709 118.837H108.161V54.3382H32.709V118.837Z" fill="#2C3131"/>
<path id="Vector_3" d="M79.9211 66.7499H60.9478V119.058H79.9211V66.7499Z" fill="#699CFF"/>
<path id="Vector_4" d="M79.9211 66.7499H60.9478V119.058H79.9211V66.7499Z" fill="#699CFF"/>
<path id="Vector_5" d="M112.794 48.132H28.0757V66.75H112.794V48.132Z" fill="white"/>
<path id="Vector_6" d="M113.014 66.9721H27.8551V47.9108H113.014V66.9721ZM28.2963 66.5288H112.573V48.3541H28.2963V66.5288Z" fill="#2C3131"/>
<path id="Vector_7" d="M79.9211 46.3593H60.9478V66.5289H79.9211V46.3593Z" fill="#699CFF"/>
<path id="Vector_8" d="M68.4034 28.7731C73.4118 36.2318 68.693 48.228 68.693 48.228C68.693 48.228 55.8539 48.1313 50.8456 40.6726C45.8372 33.2139 50.556 21.2177 50.556 21.2177C50.556 21.2177 63.395 21.3144 68.4034 28.7731Z" fill="#699CFF"/>
<path id="Vector_9" d="M70.7011 28.7731C65.6927 36.2318 70.4116 48.228 70.4116 48.228C70.4116 48.228 83.2506 48.1313 88.259 40.6726C93.2674 33.2139 88.5485 21.2177 88.5485 21.2177C88.5485 21.2177 75.7095 21.3144 70.7011 28.7731Z" fill="#699CFF"/>
<g id="Group 5250">
<g id="Group 5249">
<ellipse id="Ellipse 51" cx="15.3194" cy="15.421" rx="15.3194" ry="15.421" transform="matrix(1.00041 0 -0.0011555 0.999591 55.3478 72.5334)" fill="#FFBE55"/>
</g>
<g id="Vector 245">
<path d="M69.2249 96.061C66.8373 95.8479 64.4616 94.0855 64.4626 93.163C64.4636 92.261 65.1923 91.8339 65.9083 91.2879C66.6242 90.7419 69.8889 94.0568 71.8426 93.39C73.7964 92.7232 72.6224 90.9542 70.866 89.8036C68.7967 88.4479 67.3033 87.4393 65.9149 85.279C65.166 84.2136 63.9702 81.2194 66.4512 79.8897C67.2271 79.4739 67.5219 79.2108 69.8072 79.2811L69.857 77.7058C70.386 77.0981 72.5909 77.1268 73.2016 77.8087L73.1517 79.384C74.5541 79.7251 77.8952 80.6768 78.2232 81.6992C78.6145 82.1206 78.9073 83.3445 78.2204 84.1842C77.0808 85.5773 69.2472 80.9172 69.8646 84.1842C70.3706 86.8616 79.6662 89.6259 77.0293 93.7171C76.4723 95.0951 74.1039 96.2777 72.6209 96.1654L72.5723 97.7027C71.8326 98.5791 69.6791 98.4474 69.223 97.7505L69.2249 96.061Z" fill="white"/>
</g>
</g>
</g>
</g>
</svg>
