<svg width="141" height="141" viewBox="0 0 141 141" fill="none" xmlns="http://www.w3.org/2000/svg">
<g id="Frame 220">
<g id="Group 5273">
<g id="Group 5277">
<path id="Path 133" d="M107.645 114.732C104.916 117.646 101.788 120.162 98.3552 122.206C98.2764 122.254 98.1964 122.3 98.116 122.347L92.558 117.441C92.6164 117.387 92.6811 117.326 92.7507 117.259C96.892 113.338 117.451 85.9187 118.821 79.2418C118.726 79.798 120.057 101.612 107.645 114.732Z" fill="#699CFF"/>
<path id="Path 134" d="M99.4279 123.153C99.3228 123.178 99.2159 123.201 99.1087 123.223L94.9389 119.542C95.0204 119.514 95.1157 119.48 95.2246 119.443C97.0136 118.811 102.342 116.904 107.645 114.732C113.343 112.397 119.013 109.758 120.233 108.068C119.971 108.461 111.913 120.369 99.4279 123.153Z" fill="#699CFF"/>
</g>
<path id="Vector" d="M47.5884 35.8915V55.2217C44.5085 56.0298 41.2838 56.1225 38.1623 55.4927C35.0408 54.8629 32.1058 53.5274 29.5831 51.589C27.0604 49.6505 25.0171 47.1608 23.6106 44.3113C22.2041 41.4618 21.4719 38.3285 21.4701 35.1525C21.4701 34.5856 21.4929 34.0246 21.5386 33.4695H32.966C33.5139 33.4701 34.0535 33.3361 34.5372 33.0795C35.0209 32.8228 35.4338 32.4514 35.7395 31.998C36.0452 31.5445 36.2343 31.023 36.2902 30.4795C36.346 29.9359 36.2668 29.387 36.0596 28.8812H40.5564C41.4797 28.8809 42.3941 29.062 43.2472 29.4141C44.1004 29.7663 44.8756 30.2826 45.5286 30.9336C46.1817 31.5846 46.6997 32.3575 47.0531 33.2082C47.4065 34.0589 47.5884 34.9707 47.5884 35.8915Z" fill="#699CFF"/>
<path id="Vector_2" d="M99.9919 40.7042H99.3743V23.925C99.3743 22.6497 99.121 21.3868 98.6289 20.2086C98.1368 19.0304 97.4155 17.9598 96.5062 17.058C95.5969 16.1562 94.5173 15.4409 93.3293 14.9529C92.1412 14.4648 90.8678 14.2136 89.5818 14.2136H53.7358C51.1387 14.2136 48.6479 15.2368 46.8115 17.058C44.975 18.8792 43.9433 21.3493 43.9433 23.9249V115.977C43.9433 118.553 44.975 121.023 46.8114 122.844C48.6479 124.665 51.1386 125.688 53.7358 125.688H89.5818C92.1789 125.688 94.6697 124.665 96.5061 122.844C98.3426 121.023 99.3743 118.553 99.3743 115.977V52.6479H99.9919L99.9919 40.7042Z" fill="#111111"/>
<path id="Vector_3" d="M97.2894 23.9931V115.91C97.2894 117.833 96.5189 119.678 95.1474 121.038C93.7759 122.398 91.9157 123.162 89.9762 123.162H53.9582C52.0186 123.162 50.1585 122.398 48.787 121.038C47.4155 119.678 46.645 117.833 46.6449 115.91V23.9931C46.645 22.0696 47.4155 20.2249 48.787 18.8648C50.1585 17.5046 52.0186 16.7405 53.9582 16.7405H58.3276C58.1129 17.2637 58.0311 17.8312 58.0895 18.3932C58.1479 18.9551 58.3446 19.4942 58.6623 19.963C58.9801 20.4318 59.4092 20.816 59.9118 21.0818C60.4144 21.3476 60.9752 21.4868 61.5448 21.4873H82.0806C82.6502 21.4868 83.211 21.3476 83.7136 21.0818C84.2162 20.816 84.6453 20.4318 84.9631 19.963C85.2808 19.4942 85.4775 18.9551 85.5359 18.3932C85.5943 17.8312 85.5125 17.2637 85.2978 16.7405H89.9762C91.9157 16.7405 93.7759 17.5046 95.1474 18.8648C96.5189 20.2249 97.2894 22.0696 97.2894 23.9931Z" fill="white"/>
<path id="Vector_4" d="M55.8785 25.2662C55.2295 25.2662 54.5868 25.3929 53.9871 25.6393C53.3875 25.8856 52.8427 26.2466 52.3837 26.7018C51.9248 27.1569 51.5607 27.6972 51.3123 28.2919C51.0639 28.8866 50.9361 29.524 50.9361 30.1676C50.9361 30.8113 51.0639 31.4487 51.3123 32.0433C51.5607 32.638 51.9247 33.1784 52.3837 33.6335C52.8426 34.0887 53.3875 34.4497 53.9871 34.696C54.5868 34.9423 55.2295 35.0691 55.8785 35.0691H55.8785C57.1894 35.0691 58.4465 34.5527 59.3734 33.6335C60.3003 32.7143 60.821 31.4676 60.821 30.1677C60.821 28.8677 60.3003 27.621 59.3734 26.7018C58.4465 25.7826 57.1894 25.2662 55.8785 25.2662Z" fill="#F2F2F2"/>
<path id="Vector_5" d="M91.7633 34.3026H65.8155C65.4878 34.3026 65.1736 34.1735 64.9418 33.9436C64.7101 33.7138 64.5799 33.4022 64.5799 33.0772C64.5799 32.7522 64.7101 32.4405 64.9418 32.2107C65.1736 31.9809 65.4878 31.8518 65.8155 31.8518H91.7633C92.091 31.8518 92.4053 31.9809 92.637 32.2107C92.8688 32.4405 92.9989 32.7522 92.9989 33.0772C92.9989 33.4022 92.8688 33.7138 92.637 33.9436C92.4053 34.1735 92.091 34.3026 91.7633 34.3026Z" fill="#F2F2F2"/>
<path id="Vector_6" d="M74.0014 29.0951H65.8155C65.4878 29.0951 65.1736 28.966 64.9418 28.7362C64.7101 28.5064 64.5799 28.1947 64.5799 27.8697C64.5799 27.5447 64.7101 27.2331 64.9418 27.0033C65.1736 26.7735 65.4878 26.6443 65.8155 26.6443H74.0014C74.3292 26.6443 74.6434 26.7735 74.8752 27.0033C75.1069 27.2331 75.2371 27.5447 75.2371 27.8697C75.2371 28.1947 75.1069 28.5064 74.8752 28.7362C74.6434 28.966 74.3292 29.0951 74.0014 29.0951Z" fill="#F2F2F2"/>
<path id="Vector_7" d="M55.8785 45.79C55.2295 45.79 54.5868 45.9168 53.9871 46.1631C53.3875 46.4095 52.8427 46.7705 52.3837 47.2256C51.9248 47.6808 51.5607 48.2211 51.3123 48.8158C51.0639 49.4105 50.9361 50.0478 50.9361 50.6915C50.9361 51.3352 51.0639 51.9725 51.3123 52.5672C51.5607 53.1619 51.9247 53.7022 52.3837 54.1574C52.8426 54.6125 53.3875 54.9736 53.9871 55.2199C54.5868 55.4662 55.2295 55.593 55.8785 55.593H55.8785C57.1894 55.593 58.4465 55.0766 59.3734 54.1574C60.3003 53.2382 60.821 51.9915 60.821 50.6915C60.821 49.3916 60.3003 48.1449 59.3734 47.2257C58.4465 46.3064 57.1894 45.79 55.8785 45.79Z" fill="#F2F2F2"/>
<path id="Vector_8" d="M91.7633 54.8274H65.8155C65.4878 54.8274 65.1736 54.6983 64.9418 54.4685C64.7101 54.2387 64.5799 53.927 64.5799 53.602C64.5799 53.277 64.7101 52.9653 64.9418 52.7355C65.1736 52.5057 65.4878 52.3766 65.8155 52.3766H91.7633C92.091 52.3766 92.4053 52.5057 92.637 52.7355C92.8688 52.9653 92.9989 53.277 92.9989 53.602C92.9989 53.927 92.8688 54.2387 92.637 54.4685C92.4053 54.6983 92.091 54.8274 91.7633 54.8274Z" fill="#F2F2F2"/>
<path id="Vector_9" d="M74.0014 49.619H65.8155C65.4878 49.619 65.1736 49.4899 64.9418 49.2601C64.7101 49.0303 64.5799 48.7186 64.5799 48.3936C64.5799 48.0686 64.7101 47.7569 64.9418 47.5271C65.1736 47.2973 65.4878 47.1682 65.8155 47.1682H74.0014C74.3292 47.1682 74.6434 47.2973 74.8752 47.5271C75.1069 47.7569 75.2371 48.0686 75.2371 48.3936C75.2371 48.7186 75.1069 49.0303 74.8752 49.2601C74.6434 49.4899 74.3292 49.619 74.0014 49.619Z" fill="#F2F2F2"/>
<path id="Vector_10" d="M55.8785 86.8397C54.5677 86.8397 53.3106 87.3561 52.3837 88.2753C51.4568 89.1945 50.9361 90.4412 50.9361 91.7412C50.9361 93.0411 51.4568 94.2879 52.3837 95.2071C53.3106 96.1263 54.5677 96.6427 55.8785 96.6427H55.8785C57.1894 96.6427 58.4465 96.1263 59.3734 95.2071C60.3003 94.2879 60.821 93.0412 60.821 91.7412C60.821 90.4413 60.3003 89.1945 59.3734 88.2753C58.4465 87.3561 57.1894 86.8397 55.8785 86.8397Z" fill="#F2F2F2"/>
<path id="Vector_11" d="M91.7633 95.8771H65.8155C65.4878 95.8771 65.1736 95.748 64.9418 95.5182C64.7101 95.2884 64.5799 94.9767 64.5799 94.6517C64.5799 94.3267 64.7101 94.015 64.9418 93.7852C65.1736 93.5554 65.4878 93.4263 65.8155 93.4263H91.7633C92.091 93.4263 92.4053 93.5554 92.637 93.7852C92.8688 94.015 92.9989 94.3267 92.9989 94.6517C92.9989 94.9767 92.8688 95.2884 92.637 95.5182C92.4053 95.748 92.091 95.8771 91.7633 95.8771Z" fill="#F2F2F2"/>
<path id="Vector_12" d="M74.0014 90.6686H65.8155C65.4878 90.6686 65.1736 90.5395 64.9418 90.3097C64.7101 90.0799 64.5799 89.7682 64.5799 89.4432C64.5799 89.1182 64.7101 88.8065 64.9418 88.5767C65.1736 88.3469 65.4878 88.2178 65.8155 88.2178H74.0014C74.3292 88.2178 74.6434 88.3469 74.8752 88.5767C75.1069 88.8065 75.2371 89.1182 75.2371 89.4432C75.2371 89.7682 75.1069 90.0799 74.8752 90.3097C74.6434 90.5395 74.3292 90.6686 74.0014 90.6686Z" fill="#F2F2F2"/>
<path id="Vector_13" d="M55.8785 107.365C55.2295 107.365 54.5868 107.492 53.9871 107.738C53.3875 107.984 52.8427 108.346 52.3837 108.801C51.9248 109.256 51.5607 109.796 51.3123 110.391C51.0639 110.985 50.9361 111.623 50.9361 112.267C50.9361 112.91 51.0639 113.548 51.3123 114.142C51.5607 114.737 51.9247 115.277 52.3837 115.732C52.8426 116.188 53.3875 116.549 53.9871 116.795C54.5868 117.041 55.2295 117.168 55.8785 117.168H55.8785C57.1894 117.168 58.4465 116.652 59.3734 115.732C60.3003 114.813 60.821 113.566 60.821 112.267C60.821 110.967 60.3003 109.72 59.3734 108.801C58.4465 107.881 57.1894 107.365 55.8785 107.365Z" fill="#F2F2F2"/>
<path id="Vector_14" d="M91.7633 116.402H65.8155C65.4878 116.402 65.1736 116.273 64.9418 116.043C64.7101 115.813 64.5799 115.502 64.5799 115.177C64.5799 114.852 64.7101 114.54 64.9418 114.31C65.1736 114.08 65.4878 113.951 65.8155 113.951H91.7633C92.091 113.951 92.4053 114.08 92.637 114.31C92.8688 114.54 92.9989 114.852 92.9989 115.177C92.9989 115.502 92.8688 115.813 92.637 116.043C92.4053 116.273 92.091 116.402 91.7633 116.402Z" fill="#F2F2F2"/>
<path id="Vector_15" d="M74.0014 111.193H65.8155C65.4878 111.193 65.1736 111.064 64.9418 110.835C64.7101 110.605 64.5799 110.293 64.5799 109.968C64.5799 109.643 64.7101 109.331 64.9418 109.102C65.1736 108.872 65.4878 108.743 65.8155 108.743H74.0014C74.3292 108.743 74.6434 108.872 74.8752 109.102C75.1069 109.331 75.2371 109.643 75.2371 109.968C75.2371 110.293 75.1069 110.605 74.8752 110.835C74.6434 111.064 74.3292 111.193 74.0014 111.193Z" fill="#F2F2F2"/>
<path id="Vector_16" d="M101.777 83.0107H42.1586C41.4829 83.0099 40.8352 82.7434 40.3574 82.2696C39.8797 81.7958 39.6109 81.1534 39.6101 80.4833V61.4901C39.6109 60.82 39.8797 60.1776 40.3574 59.7038C40.8352 59.23 41.4829 58.9635 42.1586 58.9628H101.777C102.452 58.9635 103.1 59.23 103.578 59.7038C104.056 60.1776 104.324 60.82 104.325 61.4901V80.4833C104.324 81.1534 104.056 81.7958 103.578 82.2696C103.1 82.7434 102.452 83.0099 101.777 83.0107Z" fill="white"/>
<g id="Group 5250">
<g id="Group 5249">
<ellipse id="Ellipse 51" cx="4.93165" cy="4.90047" rx="4.93165" ry="4.90047" transform="matrix(1.00041 0 -0.00116196 0.999591 51.1476 66.29)" fill="#FFBE55"/>
</g>
<g id="Vector 245">
<path d="M55.6157 73.7665C54.8471 73.6988 54.0823 73.1388 54.0827 72.8456C54.083 72.559 54.3175 72.4233 54.548 72.2498C54.7785 72.0762 55.8295 73.1297 56.4584 72.9178C57.0874 72.7059 56.7095 72.1437 56.144 71.7781C55.4779 71.3473 54.9971 71.0267 54.5502 70.3402C54.3091 70.0017 53.9241 69.0502 54.7228 68.6276C54.9726 68.4955 55.0675 68.4119 55.8032 68.4342L55.8192 67.9336C55.9895 67.7405 56.6993 67.7496 56.8959 67.9663L56.8799 68.4669C57.3313 68.5753 58.4069 68.8778 58.5125 69.2027C58.6384 69.3366 58.7327 69.7255 58.5116 69.9923C58.1447 70.435 55.6229 68.9542 55.8217 69.9923C55.9845 70.8432 58.977 71.7216 58.1281 73.0217C57.9488 73.4596 57.1864 73.8354 56.709 73.7997L56.6933 74.2883C56.4552 74.5667 55.7619 74.5249 55.6151 74.3034L55.6157 73.7665Z" fill="white"/>
</g>
</g>
<g id="Group 5274">
<path id="Vector_17" d="M91.7629 75.1221H65.8152C65.4875 75.1221 65.1732 74.993 64.9415 74.7632C64.7097 74.5334 64.5796 74.2217 64.5796 73.8967C64.5796 73.5717 64.7097 73.26 64.9415 73.0302C65.1732 72.8004 65.4875 72.6713 65.8152 72.6713H91.7629C92.0907 72.6713 92.4049 72.8004 92.6367 73.0302C92.8684 73.26 92.9986 73.5717 92.9986 73.8967C92.9986 74.2217 92.8684 74.5334 92.6367 74.7632C92.4049 74.993 92.0907 75.1221 91.7629 75.1221Z" fill="#699CFF"/>
<path id="Vector_18" d="M74.0011 69.9141H65.8152C65.4875 69.9141 65.1732 69.785 64.9415 69.5552C64.7097 69.3254 64.5796 69.0137 64.5796 68.6887C64.5796 68.3637 64.7097 68.052 64.9415 67.8222C65.1732 67.5924 65.4875 67.4633 65.8152 67.4633H74.0011C74.3288 67.4633 74.6431 67.5924 74.8748 67.8222C75.1065 68.052 75.2367 68.3637 75.2367 68.6887C75.2367 69.0137 75.1065 69.3254 74.8748 69.5552C74.6431 69.785 74.3288 69.9141 74.0011 69.9141Z" fill="#699CFF"/>
<rect id="Rectangle 4088" x="39.8303" y="58.9253" width="64.275" height="24.0062" stroke="#2C3131" stroke-width="0.440032"/>
<g id="Group 5251">
<g id="Group 5249_2">
<ellipse id="Ellipse 51_2" cx="4.93165" cy="4.90047" rx="4.93165" ry="4.90047" transform="matrix(1.00041 0 -0.00116196 0.999591 51.1477 65.8003)" fill="#FFBE55"/>
</g>
<g id="Vector 245_2">
<path d="M55.6153 73.2773C54.8467 73.2096 54.0819 72.6495 54.0823 72.3564C54.0826 72.0697 54.3172 71.934 54.5477 71.7605C54.7782 71.587 55.8291 72.6404 56.4581 72.4285C57.087 72.2166 56.7091 71.6545 56.1437 71.2888C55.4775 70.858 54.9968 70.5375 54.5498 69.851C54.3087 69.5124 53.9238 68.5609 54.7224 68.1384C54.9722 68.0063 55.0671 67.9226 55.8028 67.945L55.8189 67.4444C55.9891 67.2513 56.699 67.2604 56.8955 67.4771L56.8795 67.9777C57.3309 68.0861 58.4065 68.3885 58.5121 68.7134C58.6381 68.8473 58.7323 69.2362 58.5112 69.5031C58.1443 69.9458 55.6225 68.4649 55.8213 69.5031C55.9842 70.3539 58.9766 71.2323 58.1278 72.5324C57.9484 72.9704 57.186 73.3462 56.7086 73.3105L56.693 73.799C56.4548 74.0775 55.7616 74.0356 55.6147 73.8142L55.6153 73.2773Z" fill="white"/>
</g>
</g>
</g>
<path id="Vector_19" d="M114.761 41.8497L108.014 36.7039L102.855 43.4319L109.601 48.5776L114.761 41.8497Z" fill="#699CFF"/>
</g>
</g>
</svg>
