<svg width="141" height="141" viewBox="0 0 141 141" fill="none" xmlns="http://www.w3.org/2000/svg">
<g id="Frame 219">
<g id="Group 5276">
<path id="Vector" d="M59.551 39.1978C60.6829 39.1969 61.7992 39.4604 62.8107 39.9671C63.8221 40.4738 64.7005 41.2097 65.3755 42.1158L69.5585 36.6611L57.0076 27.0874L47.4083 39.6049L52.8177 43.7311C53.359 42.3921 54.2893 41.2451 55.4891 40.4373C56.6889 39.6296 58.1034 39.1979 59.551 39.1978Z" fill="#699CFF"/>
<path id="Vector_2" d="M118.384 85.7563H138.966C139.827 89.018 139.925 92.433 139.255 95.7387C138.584 99.0444 137.162 102.153 135.098 104.824C133.034 107.496 130.383 109.66 127.349 111.149C124.315 112.639 120.979 113.414 117.597 113.416C116.994 113.416 116.396 113.392 115.805 113.343V101.242C115.806 100.661 115.663 100.09 115.39 99.5777C115.117 99.0655 114.721 98.6282 114.238 98.3044C113.756 97.9807 113.2 97.7804 112.622 97.7213C112.043 97.6622 111.458 97.7461 110.92 97.9655V93.2033C110.92 92.2255 111.112 91.2572 111.487 90.3537C111.862 89.4502 112.412 88.6292 113.105 87.9377C113.798 87.2461 114.621 86.6975 115.527 86.3232C116.433 85.949 117.404 85.7563 118.384 85.7563Z" fill="#699CFF"/>
<path id="Vector_3" d="M13.719 92.7784L6.55533 87.314L1.07636 94.4585L8.24002 99.9229L13.719 92.7784Z" fill="#699CFF"/>
<path id="ab2e16f2-9798-47da-b25d-769524f3c86f" d="M18.0537 107.095L11.6042 58.873L106.066 44.1346L112.515 92.3562L18.0537 107.095Z" fill="#F1F1F1" stroke="#111111" stroke-width="0.394796"/>
<path id="bf81c03f-68cf-4889-8697-1102f95f97bb" d="M104.08 48.5002L14.6534 62.4531L20.078 103.012L109.505 89.0595L104.08 48.5002Z" fill="white"/>
<path id="f065dccc-d150-492a-a09f-a7f3f89523f0" d="M11.7185 60.0308L11.1888 56.0698L105.65 41.3314L106.18 45.2924L11.7185 60.0308Z" fill="#E5E5E5" stroke="#111111" stroke-width="0.394796"/>
<path id="bdbbf39c-df25-4682-8b85-5a6af4a1bd14" d="M14.3041 58.8115C14.7209 58.8115 15.0587 58.4466 15.0587 57.9966C15.0587 57.5465 14.7209 57.1817 14.3041 57.1817C13.8874 57.1817 13.5496 57.5465 13.5496 57.9966C13.5496 58.4466 13.8874 58.8115 14.3041 58.8115Z" fill="white"/>
<path id="abcd4292-0b1f-4102-9b5e-e8bbd87baabc" d="M17.1391 58.3697C17.5558 58.3697 17.8936 58.0048 17.8936 57.5548C17.8936 57.1047 17.5558 56.7399 17.1391 56.7399C16.7223 56.7399 16.3845 57.1047 16.3845 57.5548C16.3845 58.0048 16.7223 58.3697 17.1391 58.3697Z" fill="white"/>
<path id="a3fb731e-8b3d-41ca-96f2-91600dc0b434" d="M19.9735 57.9273C20.3902 57.9273 20.728 57.5625 20.728 57.1124C20.728 56.6624 20.3902 56.2975 19.9735 56.2975C19.5567 56.2975 19.2189 56.6624 19.2189 57.1124C19.2189 57.5625 19.5567 57.9273 19.9735 57.9273Z" fill="white"/>
<path id="ab2e16f2-9798-47da-b25d-769524f3c86f_2" d="M32.385 113.745V65.0221H127.826V113.745H32.385Z" fill="#E6E6E6" stroke="#111111" stroke-width="0.394796"/>
<path id="f065dccc-d150-492a-a09f-a7f3f89523f0_2" d="M32.3589 66.173V62.1992H127.771V66.173H32.3589Z" fill="#E5E5E5" stroke="#111111" stroke-width="0.423674"/>
<path id="bdbbf39c-df25-4682-8b85-5a6af4a1bd14_2" d="M35.1722 65.3883C35.5889 65.3883 35.9267 65.0235 35.9267 64.5734C35.9267 64.1234 35.5889 63.7585 35.1722 63.7585C34.7554 63.7585 34.4176 64.1234 34.4176 64.5734C34.4176 65.0235 34.7554 65.3883 35.1722 65.3883Z" fill="white"/>
<path id="abcd4292-0b1f-4102-9b5e-e8bbd87baabc_2" d="M38.0364 65.3883C38.4531 65.3883 38.7909 65.0235 38.7909 64.5734C38.7909 64.1234 38.4531 63.7585 38.0364 63.7585C37.6196 63.7585 37.2818 64.1234 37.2818 64.5734C37.2818 65.0235 37.6196 65.3883 38.0364 65.3883Z" fill="white"/>
<path id="a3fb731e-8b3d-41ca-96f2-91600dc0b434_2" d="M40.9011 65.3883C41.3178 65.3883 41.6556 65.0235 41.6556 64.5734C41.6556 64.1234 41.3178 63.7585 40.9011 63.7585C40.4843 63.7585 40.1465 64.1234 40.1465 64.5734C40.1465 65.0235 40.4843 65.3883 40.9011 65.3883Z" fill="white"/>
<path id="bf81c03f-68cf-4889-8697-1102f95f97bb_2" d="M35.1252 109.82V69.2347H125.086V109.82H35.1252Z" fill="white" stroke="#111111" stroke-width="0.394796"/>
<g id="Group 5227">
<ellipse id="Ellipse 287" cx="105.825" cy="85.6506" rx="4.94591" ry="4.96183" fill="#699CFF"/>
<path id="Ellipse 288" d="M113.654 98.3894C113.654 97.4596 113.452 96.5389 113.061 95.6799C112.669 94.8209 112.095 94.0404 111.372 93.3829C110.649 92.7255 109.79 92.204 108.845 91.8481C107.9 91.4923 106.887 91.3092 105.864 91.3092C104.841 91.3092 103.829 91.4923 102.884 91.8481C101.939 92.204 101.08 92.7255 100.357 93.3829C99.6333 94.0404 99.0596 94.8209 98.6681 95.6799C98.2767 96.5389 98.0752 97.4596 98.0752 98.3894L105.864 98.3894H113.654Z" fill="#699CFF"/>
</g>
<path id="Vector_4" d="M59.4624 98.6712H46.737V99.7043H59.4624V98.6712Z" fill="#E6E6E6"/>
<path id="Vector_5" d="M61.0492 101.356H45.0342V102.389H61.0492V101.356Z" fill="#E6E6E6"/>
<g id="Group 5279">
<path id="Vector_6" d="M59.0304 82.9806H46.4345V92.7628H59.0304V82.9806Z" fill="#699CFF"/>
<path id="Vector_7" d="M60.2899 91.9948H48.1979C48.0643 91.9947 47.9362 91.9357 47.8418 91.8309C47.7473 91.7261 47.6942 91.584 47.694 91.4358V82.2127C47.6942 82.0645 47.7473 81.9224 47.8418 81.8176C47.9362 81.7128 48.0643 81.6538 48.1979 81.6537H60.2899C60.4235 81.6538 60.5515 81.7128 60.646 81.8176C60.7404 81.9224 60.7936 82.0645 60.7937 82.2127V91.4358C60.7936 91.584 60.7404 91.7261 60.646 91.8309C60.5515 91.9357 60.4235 91.9947 60.2899 91.9948ZM48.1979 82.2127V91.4358H60.2902L60.2899 82.2127H48.1979Z" fill="#3F3D56"/>
<path id="Vector_8" d="M58.9042 81.8628H58.4004C58.4004 80.6398 57.9625 79.4668 57.183 78.6019C56.4034 77.7371 55.3462 77.2512 54.2438 77.2512C53.1414 77.2512 52.0841 77.7371 51.3046 78.6019C50.5251 79.4668 50.0871 80.6398 50.0871 81.8628H49.5833C49.5833 80.4915 50.0743 79.1764 50.9483 78.2067C51.8223 77.237 53.0077 76.6923 54.2438 76.6923C55.4798 76.6923 56.6652 77.237 57.5392 78.2067C58.4132 79.1764 58.9042 80.4915 58.9042 81.8628Z" fill="#3F3D56"/>
<path id="Vector_9" d="M55.5031 85.7053C55.5033 85.462 55.4463 85.2229 55.3376 85.0115C55.229 84.8002 55.0725 84.624 54.8836 84.5003C54.6947 84.3767 54.4799 84.3099 54.2606 84.3066C54.0413 84.3033 53.825 84.3636 53.6332 84.4815C53.4413 84.5994 53.2806 84.7709 53.1668 84.9789C53.053 85.1869 52.9901 85.4242 52.9844 85.6674C52.9787 85.9106 53.0304 86.1513 53.1343 86.3656C53.2382 86.5798 53.3907 86.7603 53.5768 86.8891V88.3887C53.5768 88.4859 53.594 88.5821 53.6275 88.6718C53.661 88.7615 53.7102 88.8431 53.7721 88.9118C53.834 88.9805 53.9075 89.0349 53.9884 89.0721C54.0693 89.1093 54.156 89.1284 54.2436 89.1284C54.4204 89.1284 54.59 89.0505 54.7151 88.9118C54.8401 88.7731 54.9104 88.5849 54.9104 88.3887V86.8891C55.0917 86.7639 55.2412 86.5895 55.3449 86.3824C55.4486 86.1752 55.503 85.9423 55.5031 85.7053Z" fill="#3F3D56"/>
</g>
</g>
</g>
</svg>
