<svg width="94" height="95" viewBox="0 0 94 95" fill="none" xmlns="http://www.w3.org/2000/svg">
<g clip-path="url(#clip0_0_1077)">
<path d="M46.9374 94.4619C72.856 94.4619 93.8672 73.4507 93.8672 47.5321C93.8672 21.6135 72.856 0.602295 46.9374 0.602295C21.0188 0.602295 0.00758362 21.6135 0.00758362 47.5321C0.00758362 73.4507 21.0188 94.4619 46.9374 94.4619Z" fill="#172852"/>
<path d="M37.8099 21.5753C43.3053 19.5198 49.4907 19.5151 55.0894 21.2046C62.3776 23.4666 68.5301 28.9668 71.7448 35.8702C72.6318 37.8365 73.4812 39.8874 73.5657 42.0743C69.4687 39.6996 64.9775 38.1603 60.477 36.7571C53.2779 34.1619 45.741 32.3598 38.9268 28.7931C37.3406 27.8452 35.3179 26.8737 34.8861 24.898C34.7125 23.1897 36.5193 22.237 37.8099 21.5753Z" fill="#FFD83D"/>
<path d="M21.22 38.1887C22.811 33.8712 25.4203 29.8634 28.9635 26.8927C29.8645 34.3029 33.0182 41.4644 38.2274 46.8519C44.4738 53.3423 53.3716 57.3267 62.4244 57.1765C66.0192 57.2891 69.5343 56.4585 73.0399 55.7874C69.5906 68.2519 55.9293 76.5257 43.2723 74.5358C35.6322 73.5597 28.5786 69.0357 24.3221 62.6485C19.5212 55.5903 18.3104 46.2184 21.22 38.1887Z" fill="#FFD83D"/>
<path d="M60.4765 36.757C64.9771 38.1602 69.4683 39.6995 73.5653 42.0741L73.8421 42.2196C74.2223 45.0776 74.4992 47.992 73.9923 50.8547C71.9321 49.9818 70.2614 48.4472 68.5156 47.0909C65.1554 44.2939 61.7249 41.0933 60.4765 36.757Z" fill="#FF6F03"/>
</g>
<defs>
<clipPath id="clip0_0_1077">
<rect width="93.8596" height="93.8596" fill="white" transform="translate(0.00758362 0.602295)"/>
</clipPath>
</defs>
</svg>
